HIERARCHY
ROOT Hips
{
	OFFSET -3.958830 18.904000 13.208200
	CHANNELS 6 Xposition Yposition Zposition Zrotation Yrotation Xrotation 
	JOINT LHipJoint
	{
		OFFSET 0.000000 0.000000 0.000000
		CHANNELS 3 Zrotation Yrotation Xrotation
		JOINT LeftUpLeg
		{
			OFFSET 1.800000 -1.400000 0.085000
			CHANNELS 3 Zrotation Yrotation Xrotation
			JOINT LeftLeg
			{
				OFFSET 2.215000 -6.000000 0.000000
				CHANNELS 3 Zrotation Yrotation Xrotation
				JOINT LeftFoot
				{
					OFFSET 2.500000 -6.900000 0.000000
					CHANNELS 3 Zrotation Yrotation Xrotation
					JOINT LeftToeBase
					{
						OFFSET 0.200000 -0.500000 1.950000
						CHANNELS 3 Zrotation Yrotation Xrotation
						End Site
						{
							OFFSET 0.000000 0.000000 0.000000
						}
					}
				}
			}
		}
	}
	JOINT RHipJoint
	{
		OFFSET 0.000000 0.000000 0.000000
		CHANNELS 3 Zrotation Yrotation Xrotation
		JOINT RightUpLeg
		{
			OFFSET -1.800000 -1.400000 0.085000
			CHANNELS 3 Zrotation Yrotation Xrotation
			JOINT RightLeg
			{
				OFFSET -2.215000 -6.000000 0.000000
				CHANNELS 3 Zrotation Yrotation Xrotation
				JOINT RightFoot
				{
					OFFSET -2.500000 -6.900000 0.000000
					CHANNELS 3 Zrotation Yrotation Xrotation
					JOINT RightToeBase
					{
						OFFSET -0.200000 -0.500000 1.950000
						CHANNELS 3 Zrotation Yrotation Xrotation
						End Site
						{
							OFFSET 0.000000 0.000000 0.000000
						}
					}
				}
			}
		}
	}
	JOINT LowerBack
	{
		OFFSET 0.000000 0.000000 0.000000
		CHANNELS 3 Zrotation Yrotation Xrotation
		JOINT Spine
		{
			OFFSET -0.087000 1.940000 -0.288900
			CHANNELS 3 Zrotation Yrotation Xrotation
			JOINT Spine1
			{
				OFFSET 0.000000 1.950000 0.060000
				CHANNELS 3 Zrotation Yrotation Xrotation
				JOINT Neck
				{
					OFFSET 0.000000 0.000000 0.000000
					CHANNELS 3 Zrotation Yrotation Xrotation
					JOINT Neck1
					{
						OFFSET 0.000000 1.600000 0.340000
						CHANNELS 3 Zrotation Yrotation Xrotation
						JOINT Head
						{
							OFFSET 0.000000 1.667000 -0.240000
							CHANNELS 3 Zrotation Yrotation Xrotation
							End Site
							{
								OFFSET 0.000000 0.000000 0.000000
							}
						}
					}
				}
				JOINT LeftShoulder
				{
					OFFSET 0.000000 0.000000 0.000000
					CHANNELS 3 Zrotation Yrotation Xrotation
					JOINT LeftArm
					{
						OFFSET 2.700000 1.550000 -0.730000
						CHANNELS 3 Zrotation Yrotation Xrotation
						JOINT LeftForeArm
						{
							OFFSET 5.450000 0.000000 0.000000
							CHANNELS 3 Zrotation Yrotation Xrotation
							JOINT LeftHand
							{
								OFFSET 3.450000 0.000000 0.000000
								CHANNELS 3 Zrotation Yrotation Xrotation
								JOINT LeftHandIndex1
								{
									OFFSET 0.750000 0.000000 0.000000
									CHANNELS 3 Zrotation Yrotation Xrotation
									End Site
									{
										OFFSET 0.000000 0.000000 0.000000
									}
								}
							}
						}
					}
				}
				JOINT RightShoulder
				{
					OFFSET 0.000000 0.000000 0.000000
					CHANNELS 3 Zrotation Yrotation Xrotation
					JOINT RightArm
					{
						OFFSET -2.700000 1.550000 -0.730000
						CHANNELS 3 Zrotation Yrotation Xrotation
						JOINT RightForeArm
						{
							OFFSET -5.450000 0.000000 0.000000
							CHANNELS 3 Zrotation Yrotation Xrotation
							JOINT RightHand
							{
								OFFSET -3.450000 0.000000 0.000000
								CHANNELS 3 Zrotation Yrotation Xrotation
								JOINT RightHandIndex1
								{
									OFFSET -0.750000 0.000000 0.000000
									CHANNELS 3 Zrotation Yrotation Xrotation
									End Site
									{
										OFFSET 0.000000 0.000000 0.000000
									}
								}
							}
						}
					}
				}
			}
		}
	}
}
MOTION
Frames: 10
Frame Time: 0.016667
-1.943850 17.060160 -3.295090 0.846137 12.298740 -3.878105 -15.114397 12.562940 3.283388 3.325487 -2.829848 -25.888832 -3.746288 3.487071 6.874045 -0.526512 2.425665 3.732556 0.238390 0.201490 0.032140 18.341925 -11.433041 2.713412 0.338598 -2.274446 1.737094 1.525156 -5.365870 19.054319 -0.370822 -4.853557 2.766504 0.283400 0.310960 0.060480 -3.954192 -0.305064 -7.469284 5.692208 4.023560 13.982846 -4.496181 6.531409 15.502728 1.628024 -2.029402 -7.846560 -6.318003 -1.021639 39.751522 0.849920 -5.055200 -0.913680 -22.013897 -20.326641 2.990747 -19.071880 -26.040959 -0.340132 18.178773 -65.985346 -10.304496 -3.691282 3.014651 -0.067430 0.218400 -0.200670 0.160530 18.681371 24.450948 6.293235 15.274972 24.849547 -2.463913 -1.989647 66.620192 -0.860432 2.006999 -1.694197 -0.108950 0.208660 0.002610 0.029580 
-1.948760 17.062720 -3.296320 0.641830 13.819737 -4.299433 -15.117786 12.612275 3.296267 2.688380 -2.961457 -25.949758 -3.189421 3.418331 7.317875 -0.527631 2.366882 3.752091 0.247520 0.213450 0.030050 18.332165 -11.428050 2.710085 0.540876 -2.211670 1.390412 2.143165 -5.720632 20.610151 -0.391820 -4.958847 2.724031 0.285830 0.304530 0.062700 -3.981069 -0.397505 -7.501250 6.011784 3.437079 14.646424 -4.732168 6.006039 15.425751 1.617146 -2.054516 -7.777429 -6.498157 -1.132016 39.989169 1.142190 -5.416740 -1.060780 -22.389177 -20.447174 2.869282 -19.283508 -26.538625 -0.393809 17.872978 -64.842564 -9.886947 -3.683753 3.021025 -0.066180 0.209530 -0.193830 0.166050 19.039123 24.329629 6.311149 15.036357 24.373666 -2.683628 -0.892822 66.723130 -0.284988 2.021048 -1.709956 -0.099540 0.204290 -0.002810 0.035650 
-1.970540 17.074760 -3.286170 0.710924 15.541368 -4.679671 -15.140277 12.662996 3.329089 1.890951 -3.156030 -25.843610 -2.814760 3.360858 7.697193 -0.550015 2.329334 3.760047 0.257930 0.215760 0.043940 18.299139 -11.435208 2.675083 0.451415 -1.956954 0.510558 3.029700 -6.296074 23.092300 -0.420963 -5.121038 2.651215 0.288270 0.288070 0.062490 -3.954038 -0.478317 -7.528224 5.712719 3.142016 15.361323 -5.057318 5.796133 15.374798 1.720081 -1.580557 -7.760834 -5.809276 -1.502174 40.529425 1.614490 -5.762810 -1.637130 -22.835997 -20.623504 2.580771 -20.243100 -27.580197 -0.382578 17.915690 -62.896366 -9.545484 -3.671889 2.994069 -0.040220 0.191760 -0.180930 0.159420 19.270892 23.942097 6.566187 16.337654 23.576456 -2.968476 1.286686 67.228851 0.673964 2.019311 -1.718622 -0.102950 0.205630 -0.001120 0.025090 
-1.990310 17.111730 -3.273290 0.284535 17.934242 -5.407151 -15.134014 12.740371 3.340697 1.498903 -3.340408 -26.101533 -2.502556 3.528277 9.766067 -0.542188 2.363128 3.730211 0.284000 0.248540 0.061150 18.288665 -11.447100 2.672680 0.775891 -1.676862 -0.721259 4.072409 -7.172571 26.715806 -0.494897 -5.402922 2.535867 0.297160 0.258450 0.054930 -4.037143 -0.564224 -7.584873 6.396567 2.338997 16.596308 -5.853417 5.164142 15.260338 1.835411 -1.419583 -7.847627 -5.744121 -1.435371 41.176184 2.736550 -6.026690 -2.701910 -23.588115 -20.780143 2.377136 -22.432542 -28.777468 -0.516329 19.896361 -60.389382 -10.286067 -3.628529 2.936215 -0.011720 0.155690 -0.149690 0.161900 19.694080 23.460727 6.922652 18.055942 22.353906 -3.221264 6.873313 68.942099 3.591116 2.043386 -1.761114 -0.092690 0.209720 -0.016540 0.024550 
-2.025020 17.161310 -3.246540 0.335517 19.954784 -5.784489 -15.192155 12.856553 3.384649 1.277578 -3.564794 -26.102757 -3.266325 3.999196 12.351646 -0.508709 2.564724 3.634750 0.309210 0.276240 0.090380 18.214192 -11.393783 2.664783 1.335237 -1.329384 -2.148170 3.991164 -7.605009 29.876180 -0.559690 -5.583587 2.457368 0.297070 0.215020 0.053910 -3.911147 -0.816402 -7.625017 5.517223 1.983315 17.720307 -5.837866 4.927273 15.148446 1.954541 -1.164983 -8.099902 -5.571193 -1.734946 41.811262 3.184580 -6.244210 -4.025600 -24.069980 -20.383283 2.292926 -25.773317 -29.195568 -0.692184 20.584219 -60.006694 -10.924598 -3.575242 2.891483 0.028240 0.116500 -0.106000 0.158240 19.947387 22.752385 7.450414 20.633403 20.660264 -3.471708 15.313787 71.124997 8.382132 2.075672 -1.814550 -0.078780 0.208970 -0.033220 0.016370 
-2.046980 17.204710 -3.205660 0.133511 21.576050 -6.041363 -15.243044 12.982629 3.363908 1.296787 -3.674322 -26.118851 -2.980300 4.443382 15.929042 -0.468134 2.851563 3.502232 0.328030 0.295420 0.112500 18.151350 -11.335927 2.688751 1.965113 -0.719355 -4.144595 4.253037 -8.275797 33.727771 -0.643015 -5.893101 2.330904 0.296080 0.175950 0.049590 -3.802260 -1.027858 -7.637622 4.941886 1.885980 18.477296 -5.470328 4.887203 14.912294 2.052698 -1.099738 -8.276470 -5.665441 -1.953344 42.185019 3.868400 -6.554180 -5.308020 -24.362755 -19.086540 2.264795 -30.858714 -29.234945 -0.636988 20.422064 -60.871294 -11.580320 -3.518874 2.864654 0.064210 0.078190 -0.072210 0.149630 20.053192 21.400692 7.703120 23.718041 18.999151 -3.294071 26.736459 71.962859 15.277239 2.136894 -1.858436 -0.068800 0.206300 -0.042630 0.008050 
-2.070350 17.265840 -3.154980 -0.355678 23.453609 -6.884074 -15.279702 13.123911 3.294742 1.414487 -3.735578 -25.704613 -1.741133 4.765537 20.303374 -0.389213 3.241908 3.340722 0.340790 0.302380 0.135200 18.096679 -11.279062 2.767107 2.196188 -0.054320 -5.908511 5.549910 -9.562682 37.569213 -0.778437 -6.370956 2.160051 0.277020 0.133270 0.039410 -3.745751 -1.209090 -7.704188 4.590410 1.719839 19.775575 -5.193901 4.769788 14.388096 2.034116 -0.749670 -8.604439 -5.406979 -2.158768 43.708285 4.966040 -6.863780 -5.958480 -25.453370 -18.402853 2.330308 -34.159449 -28.324161 -1.223955 16.539546 -61.923329 -10.136580 -3.467920 2.898501 0.110000 0.030270 -0.030550 0.147470 21.192403 20.388179 8.257496 27.134562 16.748224 -3.468680 38.357655 71.646220 21.823725 2.234171 -1.857122 -0.057970 0.201680 -0.061070 0.000660 
-2.093230 17.298350 -3.109560 -0.872944 24.475839 -7.595785 -15.307850 13.209601 3.245138 1.784267 -3.914789 -25.516036 -0.370333 5.119813 25.464830 -0.280245 3.847698 3.094873 0.348670 0.309230 0.140330 18.062552 -11.197808 2.848046 2.325631 0.841640 -8.023370 6.352762 -10.687974 41.475086 -0.912365 -6.876868 1.977526 0.262660 0.097170 0.029920 -3.694781 -1.339669 -7.781174 4.404761 1.823997 21.026668 -4.695210 4.926299 13.650023 1.901672 -0.811578 -8.696643 -5.915761 -2.341663 45.061655 6.203690 -7.563720 -6.618240 -26.416778 -17.152016 2.283198 -37.875536 -27.296142 -1.617397 11.762347 -63.252022 -8.214933 -3.427031 2.956696 0.145960 -0.014780 0.001640 0.143940 22.394972 19.299708 8.398821 30.056305 14.763607 -3.793557 47.234173 69.922656 25.985109 2.333242 -1.821376 -0.045900 0.194660 -0.069680 0.000280 
-2.103330 17.307140 -3.082310 -1.387887 25.851124 -7.858996 -15.332283 13.186826 3.237861 1.966872 -4.324167 -25.637516 1.071535 5.384172 30.594643 -0.150456 4.571457 2.827000 0.315090 0.261220 0.133250 18.049059 -11.067712 2.946562 1.784231 2.052927 -11.045350 7.717488 -12.512271 46.289868 -1.082009 -7.658901 1.714096 0.223330 0.089930 0.019480 -3.676457 -1.389747 -7.907717 4.491967 1.850627 21.826156 -4.437576 4.914533 12.584963 1.972776 -0.425821 -8.924307 -5.348665 -2.604689 46.161632 6.786700 -7.797490 -5.966670 -27.195267 -16.116311 2.514312 -41.182161 -25.336210 -2.175586 4.832091 -64.755313 -4.936049 -3.431463 3.030963 0.168420 -0.030000 0.007260 0.128560 23.074202 18.117279 8.422372 33.498879 12.523364 -4.507024 52.825138 67.892025 27.665189 2.407122 -1.777915 -0.054540 0.190570 -0.058290 -0.007150 
-2.113110 17.286140 -3.053890 -2.179051 27.092338 -8.527462 -15.329895 13.130874 3.181319 2.835781 -4.556920 -25.496263 2.291321 5.642565 35.093985 -0.003364 5.280024 2.563907 0.306750 0.246020 0.140570 18.064585 -10.931418 3.095516 0.873096 3.289398 -13.870389 9.182594 -14.780104 51.388015 -1.323949 -8.617568 1.403633 0.192460 0.057480 0.008310 -3.740097 -1.356820 -8.070932 5.267909 1.797488 22.848829 -4.438313 4.926382 11.450741 2.049116 -0.104084 -9.203804 -5.051754 -3.141699 47.917063 7.504870 -8.484550 -5.783320 -27.899676 -15.422660 2.705052 -43.748640 -23.304072 -2.805620 -3.901950 -64.776591 -0.222903 -3.416637 3.113360 0.198950 -0.066680 0.035870 0.121490 23.639657 17.290866 8.535575 36.531080 9.964004 -5.798061 56.344893 65.550801 27.791262 2.458489 -1.755373 -0.045430 0.181870 -0.066850 -0.010000 
